<svg xmlns="http://www.w3.org/2000/svg" width="29.524" height="33" viewBox="0 0 29.524 33"><defs><style>.a{fill:#fff;}</style></defs><path class="a" d="M28.97,29.494l-5.729-6.4a15.5,15.5,0,0,0,2.593-8.652C25.833,6.464,20.05,0,12.917,0S0,6.464,0,14.438,5.783,28.875,12.917,28.875a11.989,11.989,0,0,0,7.739-2.9l5.731,6.4A1.6,1.6,0,0,0,27.679,33a1.961,1.961,0,0,0,1.845-2.062A2.029,2.029,0,0,0,28.97,29.494ZM3.69,14.438c0-5.7,4.13-10.312,9.226-10.312s9.226,4.616,9.226,10.313S18.013,24.75,12.917,24.75,3.69,20.134,3.69,14.438Z"/></svg>